<svg width="146" height="146" viewBox="0 0 146 146" fill="none" xmlns="http://www.w3.org/2000/svg">
<path d="M54.75 121.667H73M73 121.667H91.25M73 121.667V103.417M73 103.417H115.583C118.81 103.417 121.905 102.135 124.186 99.8531C126.468 97.5714 127.75 94.4767 127.75 91.2499V36.4999C127.75 33.2731 126.468 30.1785 124.186 27.8968C121.905 25.6151 118.81 24.3333 115.583 24.3333H30.4167C27.1899 24.3333 24.0952 25.6151 21.8135 27.8968C19.5318 30.1785 18.25 33.2731 18.25 36.4999V91.2499C18.25 94.4767 19.5318 97.5714 21.8135 99.8531C24.0952 102.135 27.1899 103.417 30.4167 103.417H73Z" stroke="#79C3F1" stroke-width="7" stroke-linecap="round" stroke-linejoin="round"/>
</svg>
