<svg width="60" height="60" viewBox="0 0 60 60" fill="none" xmlns="http://www.w3.org/2000/svg">
<path d="M16.5151 8.51508C16.1212 8.9089 15.9 9.44305 15.9 10V50C15.9 50.557 16.1212 51.0911 16.5151 51.4849C16.9089 51.8788 17.443 52.1 18 52.1H42C42.557 52.1 43.0911 51.8788 43.4849 51.4849C43.8788 51.0911 44.1 50.557 44.1 50V10C44.1 9.44305 43.8788 8.9089 43.4849 8.51508C43.0911 8.12125 42.557 7.9 42 7.9H18C17.443 7.9 16.9089 8.12125 16.5151 8.51508ZM13.8281 5.82807C14.9345 4.72161 16.4352 4.1 18 4.1H42C43.5648 4.1 45.0655 4.72161 46.1719 5.82807C47.2784 6.93454 47.9 8.43522 47.9 10V50C47.9 51.5648 47.2784 53.0655 46.1719 54.1719C45.0655 55.2784 43.5648 55.9 42 55.9H18C16.4352 55.9 14.9345 55.2784 13.8281 54.1719C12.7216 53.0655 12.1 51.5648 12.1 50V10C12.1 8.43522 12.7216 6.93454 13.8281 5.82807ZM23.0808 47.0808C23.3246 46.837 23.6552 46.7 24 46.7H36C36.3448 46.7 36.6754 46.837 36.9192 47.0808C37.163 47.3246 37.3 47.6552 37.3 48C37.3 48.3448 37.163 48.6754 36.9192 48.9192C36.6754 49.163 36.3448 49.3 36 49.3H24C23.6552 49.3 23.3246 49.163 23.0808 48.9192C22.837 48.6754 22.7 48.3448 22.7 48C22.7 47.6552 22.837 47.3246 23.0808 47.0808Z" fill="#79C3F1" stroke="#79C3F1" stroke-width="0.2"/>
</svg>
