<svg width="155" height="155" viewBox="0 0 155 155" fill="none" xmlns="http://www.w3.org/2000/svg">
<path d="M81.8017 54.6892V58.1892H85.3017H96.8531C97.8763 58.19 98.8833 58.4445 99.7841 58.9299C100.685 59.4153 101.451 60.1166 102.014 60.9708C102.578 61.8251 102.92 62.8056 103.011 63.8248C103.103 64.8437 102.94 65.8694 102.538 66.81C102.537 66.8102 102.537 66.8103 102.537 66.8105L76.9671 126.494C76.9665 126.495 76.9659 126.497 76.9652 126.498C76.6665 127.187 76.14 127.752 75.4739 128.099C74.8065 128.447 74.0396 128.554 73.3023 128.403C72.5651 128.252 71.9025 127.851 71.4259 127.268C70.9503 126.687 70.6891 125.96 70.686 125.208V80.5226V77.1293L67.2944 77.0243L57.9187 76.7339C57.9176 76.7339 57.9164 76.7338 57.9152 76.7338C56.3115 76.6794 54.7916 76.0041 53.6763 74.8503C52.5601 73.6957 51.9366 72.1523 51.9375 70.5464V70.5445V32.2917C51.9375 30.6507 52.5894 29.0769 53.7498 27.9165C54.9102 26.7561 56.484 26.1042 58.125 26.1042H75.6142C77.2552 26.1042 78.829 26.7561 79.9894 27.9165C81.1498 29.0769 81.8017 30.6507 81.8017 32.2917V54.6892Z" stroke="#79C3F1" stroke-width="7"/>
</svg>
