<svg width="112" height="112" viewBox="0 0 112 112" fill="none" xmlns="http://www.w3.org/2000/svg">
<g clip-path="url(#clip0_40_36)">
<path d="M27.125 48.289C27.599 48.289 28.1276 48.3619 28.7109 48.5078C29.2943 48.6536 29.8776 48.8541 30.4609 49.1093C31.0443 49.3645 31.6276 49.6015 32.2109 49.8203C32.7943 50.039 33.3229 50.2578 33.7969 50.4765L32.9219 50.5859C32.6302 50.6223 32.3203 50.6406 31.9922 50.6406C31.3724 50.6406 30.8073 50.5494 30.2969 50.3671C29.7865 50.1848 29.3125 49.9479 28.875 49.6562C28.4375 49.3645 28 49.1458 27.5625 48.9999C27.125 48.8541 26.724 48.7447 26.3594 48.6718C25.9948 48.6718 25.6667 48.7447 25.375 48.8906C25.0833 49.0364 24.7917 49.2005 24.5 49.3828C24.5 49.2369 24.3724 49.164 24.1172 49.164C24.3724 48.9088 24.8464 48.7083 25.5391 48.5624C26.2318 48.4166 26.7604 48.3255 27.125 48.289ZM34.5078 50.7499C36.0026 50.7499 37.3698 51.0051 38.6094 51.5156C38.099 51.6979 37.5885 51.8437 37.0781 51.9531C36.5677 52.0624 36.0391 52.1354 35.4922 52.1718C34.763 52.1718 34.1068 52.0989 33.5234 51.9531C33.7057 51.6614 33.888 51.4791 34.0703 51.4062C34.2526 51.3333 34.3984 51.1145 34.5078 50.7499ZM56 -6.26e-05C61.1406 -6.26e-05 66.0807 0.674417 70.8203 2.02338C75.5599 3.37233 80.0078 5.24994 84.1641 7.65619C88.3203 10.0624 92.112 12.9973 95.5391 16.4609C98.9661 19.9244 101.883 23.6979 104.289 27.7812C106.695 31.8645 108.591 36.3124 109.977 41.1249C111.362 45.9374 112.036 50.8958 112 55.9999C112 61.1406 111.326 66.0807 109.977 70.8203C108.628 75.5598 106.75 80.0078 104.344 84.164C101.938 88.3203 99.0026 92.1119 95.5391 95.539C92.0755 98.9661 88.3021 101.883 84.2188 104.289C80.1354 106.695 75.6875 108.591 70.875 109.977C66.0625 111.362 61.1042 112.036 56 112C50.8594 112 45.9193 111.325 41.1797 109.977C36.4401 108.628 31.9922 106.75 27.8359 104.344C23.6797 101.937 19.888 99.0025 16.4609 95.539C13.0339 92.0755 10.1172 88.302 7.71094 84.2187C5.30469 80.1354 3.40885 75.6874 2.02344 70.8749C0.638019 66.0624 -0.0364599 61.1041 -1.56485e-06 55.9999C-1.56485e-06 50.8593 0.674478 45.9192 2.02344 41.1796C3.37239 36.44 5.25 31.9921 7.65625 27.8359C10.0625 23.6796 12.9974 19.888 16.4609 16.4609C19.9245 13.0338 23.6979 10.1171 27.7812 7.71087C31.8646 5.30462 36.3125 3.40879 41.125 2.02338C45.9375 0.637958 50.8958 -0.0365209 56 -6.26e-05ZM97.6719 30.3515C97.1615 29.5494 96.651 28.7838 96.1406 28.0546C95.6302 27.3255 95.1016 26.5781 94.5547 25.8124C94.4818 26.1406 94.3906 26.3775 94.2812 26.5234C94.1719 26.6692 94.099 26.9973 94.0625 27.5077C94.0625 27.8359 94.1901 28.1458 94.4453 28.4374C94.7005 28.7291 95.0286 29.0208 95.4297 29.3124C95.8307 29.6041 96.2318 29.8229 96.6328 29.9687C97.0339 30.1145 97.3802 30.2421 97.6719 30.3515ZM93.8984 24.9921C93.8984 25.2838 93.8438 25.4843 93.7344 25.5937H94.0625C94.2083 25.5937 94.3177 25.6119 94.3906 25.6484L93.8984 24.9921ZM56 105C60.1562 105 64.2214 104.471 68.1953 103.414C72.1693 102.357 75.9245 100.862 79.4609 98.9296C82.9974 96.9973 86.2786 94.6275 89.3047 91.8203C92.3307 89.013 94.974 85.8775 97.2344 82.414C96.7604 81.3203 96.3047 80.2083 95.8672 79.0781C95.4297 77.9479 95.2109 76.7812 95.2109 75.5781C95.2109 74.2656 95.2656 73.2083 95.375 72.4062C95.4844 71.6041 95.612 70.8932 95.7578 70.2734C95.9036 69.6536 95.9766 69.1249 95.9766 68.6874C95.9766 68.2499 95.9219 67.6848 95.8125 66.9921C95.7031 66.2994 95.3932 65.552 94.8828 64.7499C94.3724 63.9479 93.6979 62.8176 92.8594 61.3593C92.8958 61.1041 92.9505 60.7578 93.0234 60.3203C93.0964 59.8828 93.1693 59.427 93.2422 58.9531C93.3151 58.4791 93.3333 58.0416 93.2969 57.6406C93.2604 57.2395 93.1693 56.8932 93.0234 56.6015C92.0755 56.4921 91.0911 56.2916 90.0703 55.9999C89.0495 55.7083 88.138 55.2708 87.3359 54.6874L87.6641 54.414C87.1901 54.5234 86.7161 54.6692 86.2422 54.8515C85.7682 55.0338 85.3125 55.2343 84.875 55.4531C84.4375 55.6718 83.9635 55.8176 83.4531 55.8906C82.9427 55.9635 82.4505 56.0364 81.9766 56.1093L81.1016 55.9999L81.2656 55.6171C80.7552 55.763 80.2083 55.9453 79.625 56.164C79.0417 56.3828 78.4766 56.4921 77.9297 56.4921C77.5651 56.4921 77.0365 56.3645 76.3438 56.1093C75.651 55.8541 74.9583 55.5442 74.2656 55.1796C73.5729 54.815 72.9531 54.414 72.4062 53.9765C71.8594 53.539 71.5859 53.1197 71.5859 52.7187L71.6953 52.5546C71.513 52.3359 71.276 52.1354 70.9844 51.9531C70.6927 51.7708 70.4193 51.5885 70.1641 51.4062C69.9089 51.2239 69.6719 51.0234 69.4531 50.8046C69.2344 50.5859 69.1432 50.3307 69.1797 50.039L69.7812 49.5468L68.5234 49.3828L68.0859 47.7421C68.1589 47.9244 68.3229 47.9973 68.5781 47.9609C68.8333 47.9244 69.0339 47.8515 69.1797 47.7421L67.2109 46.7031L68.5781 43.2031C68.0677 41.3072 67.9401 39.8489 68.1953 38.8281C68.4505 37.8072 68.9427 36.9687 69.6719 36.3124C70.401 35.6562 71.2031 34.9999 72.0781 34.3437C72.9531 33.6874 73.8464 32.7942 74.7578 31.664L74.5938 31.0077L78.2031 26.6327L79.0234 26.5234C80.0443 26.5234 81.1927 26.4869 82.4688 26.414C83.7448 26.3411 85.0391 26.2135 86.3516 26.0312C87.6641 25.8489 88.9583 25.6666 90.2344 25.4843C91.5104 25.302 92.6771 25.065 93.7344 24.7734C92.5677 23.388 91.3464 22.0755 90.0703 20.8359C88.7943 19.5963 87.4271 18.4114 85.9688 17.2812C85.5677 17.427 85.0755 17.6275 84.4922 17.8827C83.9089 18.138 83.3255 18.4661 82.7422 18.8671C82.1589 19.2682 81.7031 19.7057 81.375 20.1796C81.0469 20.6536 80.8464 21.1458 80.7734 21.6562L81.1016 22.6952C80.4453 23.7525 79.7161 24.4088 78.9141 24.664C78.112 24.9192 77.2917 25.065 76.4531 25.1015C75.6146 25.138 74.7396 25.138 73.8281 25.1015C72.9167 25.065 72.0417 25.2291 71.2031 25.5937L70.3281 23.7343L71.1484 20.5624L70.2188 19.1952L79.6797 16.2421C79.2786 15.2213 78.6224 14.4557 77.7109 13.9452C76.7995 13.4348 75.7969 13.1796 74.7031 13.1796V12.6327L77.7656 12.1406C74.375 10.4635 70.8568 9.18744 67.2109 8.31244C63.5651 7.43744 59.8281 6.99994 56 6.99994C52.8281 6.99994 49.6927 7.30983 46.5938 7.92962C43.4948 8.54942 40.5052 9.44265 37.625 10.6093C34.7448 11.776 31.9557 13.2343 29.2578 14.9843C26.5599 16.7343 24.099 18.7031 21.875 20.8906C22.8229 20.8906 23.5521 21.1275 24.0625 21.6015C24.5729 22.0755 25.0469 22.6041 25.4844 23.1874C25.9219 23.7708 26.3776 24.2994 26.8516 24.7734C27.3255 25.2473 27.9635 25.5025 28.7656 25.539L29.6406 24.8827L29.5312 23.6796L31.3359 21.1093L29.9141 17.0624C30.0964 16.9531 30.3698 16.7708 30.7344 16.5156C31.099 16.2604 31.4089 16.1327 31.6641 16.1327C32.7578 16.1327 33.5964 16.1874 34.1797 16.2968C34.763 16.4062 35.2734 16.6067 35.7109 16.8984C36.1484 17.19 36.5312 17.6093 36.8594 18.1562C37.1875 18.7031 37.6979 19.3958 38.3906 20.2343L40.3594 18.7031C40.724 18.8489 41.3073 19.0859 42.1094 19.414C42.9115 19.7421 43.7318 20.1432 44.5703 20.6171C45.4089 21.0911 46.1198 21.5833 46.7031 22.0937C47.2865 22.6041 47.5964 23.0781 47.6328 23.5156C47.6328 24.0624 47.4323 24.4999 47.0312 24.8281C46.6302 25.1562 46.1016 25.4296 45.4453 25.6484C44.7891 25.8671 44.1146 26.0312 43.4219 26.1406C42.7292 26.2499 42.0365 26.3958 41.3438 26.5781C40.651 26.7604 40.1224 26.9426 39.7578 27.1249C39.3932 27.3072 39.1745 27.6171 39.1016 28.0546L42.2734 29.0937C41.5443 29.7135 40.7604 30.2786 39.9219 30.789C39.0833 31.2994 38.2083 31.7734 37.2969 32.2109L37.5156 33.1406L32.4844 35.1093V36.6406L32.1016 36.8046L32.375 34.8906L32.1562 34.8359C31.901 34.8359 31.7552 34.8906 31.7187 34.9999C31.6823 35.1093 31.6641 35.2369 31.6641 35.3828C31.6641 35.5286 31.7005 35.6744 31.7734 35.8203C31.8464 35.9661 31.8646 36.0755 31.8281 36.1484L31.1172 35.7656L31.2266 35.9843C31.2266 36.0937 31.2812 36.2578 31.3906 36.4765C31.5 36.6953 31.6458 36.8958 31.8281 37.0781C32.0104 37.2604 32.1562 37.4426 32.2656 37.6249C32.375 37.8072 32.4479 37.8984 32.4844 37.8984C32.4844 38.0078 32.4115 38.1171 32.2656 38.2265C32.1198 38.3359 31.9375 38.4088 31.7187 38.4453C31.5 38.4817 31.3542 38.5364 31.2812 38.6093C31.2083 38.6822 31.2083 38.7005 31.2812 38.664C31.7917 38.664 31.901 38.7005 31.6094 38.7734C31.3177 38.8463 30.862 39.0286 30.2422 39.3203C29.6224 39.6119 29.0573 40.0312 28.5469 40.5781C28.0365 41.1249 27.7448 41.927 27.6719 42.9843C27.6719 43.6041 27.6901 44.2057 27.7266 44.789C27.763 45.3723 27.7448 45.9739 27.6719 46.5937C27.1615 45.2083 26.3958 44.151 25.375 43.4218C24.3542 42.6926 23.1146 42.3281 21.6562 42.3281L19.3047 42.5468L20.4531 43.3124C19.8333 43.2395 19.1953 43.1666 18.5391 43.0937C17.8828 43.0208 17.2083 43.0025 16.5156 43.039C15.8229 43.0755 15.2031 43.2213 14.6562 43.4765C14.1094 43.7317 13.5625 44.1145 13.0156 44.6249L12.6875 47.0859C12.6875 48.2525 12.9427 49.2005 13.4531 49.9296C13.9635 50.6588 14.8568 51.0416 16.1328 51.0781C17.2266 51.0781 18.3021 50.914 19.3594 50.5859C20.4167 50.2578 21.4557 49.8749 22.4766 49.4374C22.1484 50.2395 21.7839 51.0051 21.3828 51.7343C20.9818 52.4635 20.6901 53.2656 20.5078 54.1406L21.2187 54.4687C22.0937 53.8854 22.8958 53.7942 23.625 54.1953C24.3542 54.5963 25.0651 55.1796 25.7578 55.9453C26.4505 56.7109 27.1615 57.4947 27.8906 58.2968C28.6198 59.0989 29.4036 59.6822 30.2422 60.0468L28.3828 61.0312L24.0078 58.5703C24.0443 58.6432 24.0807 58.8072 24.1172 59.0624C24.1536 59.3176 24.1354 59.3723 24.0625 59.2265L22.0937 55.8906C20.9271 55.8541 19.6875 55.6718 18.375 55.3437C17.0625 55.0156 15.7318 54.5781 14.3828 54.0312C13.0339 53.4843 11.776 52.8828 10.6094 52.2265C9.44271 51.5703 8.36719 50.8775 7.38281 50.1484L7 55.9999C7 60.4479 7.60156 64.7864 8.80469 69.0156C10.0078 73.2447 11.7031 77.2187 13.8906 80.9374C16.0781 84.6562 18.7578 88.0468 21.9297 91.1093C25.1016 94.1718 28.6198 96.7786 32.4844 98.9296C32.3021 98.164 32.2839 97.3984 32.4297 96.6328C32.5755 95.8671 32.7578 95.1015 32.9766 94.3359C33.1953 93.5703 33.4323 92.8046 33.6875 92.039C33.9427 91.2734 34.0703 90.4895 34.0703 89.6874C34.0703 88.5208 33.888 87.2994 33.5234 86.0234C33.1589 84.7473 32.7214 83.4531 32.2109 82.1406C31.7005 80.8281 31.1354 79.5338 30.5156 78.2578C29.8958 76.9817 29.4036 75.7786 29.0391 74.6484C28.6745 73.5182 28.3828 72.4609 28.1641 71.4765C27.9453 70.4921 28.0547 69.6354 28.4922 68.9062L27.6719 68.5234C27.8906 68.013 28.1823 67.5208 28.5469 67.0468C28.9115 66.5729 29.2943 66.0989 29.6953 65.6249C30.0964 65.151 30.4062 64.6406 30.625 64.0937C30.8437 63.5468 30.9714 62.9999 31.0078 62.4531C31.0078 62.0885 30.9349 61.7057 30.7891 61.3046C30.6432 60.9036 30.5156 60.5208 30.4062 60.1562L31.5547 60.4296C32.1745 59.0078 33.013 58.0416 34.0703 57.5312C35.1276 57.0208 36.4583 56.7473 38.0625 56.7109C38.2448 56.7109 38.6276 56.7838 39.2109 56.9296C39.7943 57.0755 40.4141 57.276 41.0703 57.5312C41.7266 57.7864 42.3464 57.9869 42.9297 58.1328C43.513 58.2786 43.9505 58.4244 44.2422 58.5703C44.2422 58.8255 44.388 58.9895 44.6797 59.0624C44.9714 59.1354 45.1354 59.263 45.1719 59.4453L45.0625 59.8828C45.1719 59.9192 45.4271 60.0468 45.8281 60.2656C46.2292 60.4843 46.6667 60.7578 47.1406 61.0859C47.6146 61.414 48.0339 61.7057 48.3984 61.9609C48.763 62.2161 49.0182 62.4166 49.1641 62.5624C49.8203 62.5624 50.7135 62.7812 51.8438 63.2187C52.974 63.6562 54.2135 64.2031 55.5625 64.8593C56.9115 65.5156 58.2422 66.2994 59.5547 67.2109C60.8672 68.1223 62.1068 69.0338 63.2734 69.9453C64.4401 70.8567 65.3333 71.7682 65.9531 72.6796C66.5729 73.5911 66.9375 74.3932 67.0469 75.0859L65.1875 77.0546C65.3333 78.914 65.2057 80.3359 64.8047 81.3203C64.4036 82.3046 63.7839 83.1249 62.9453 83.7812C62.1068 84.4374 61.1406 84.9843 60.0469 85.4218C58.9531 85.8593 57.7682 86.4791 56.4922 87.2812C56.4922 88.0104 56.3099 88.7942 55.9453 89.6328C55.5807 90.4713 55.125 91.2734 54.5781 92.039C54.0312 92.8046 53.375 93.4426 52.6094 93.9531C51.8438 94.4635 51.0781 94.7187 50.3125 94.7187L48.0156 92.9687C48.0885 93.0416 48.0885 93.1692 48.0156 93.3515C47.9427 93.5338 47.8516 93.5703 47.7422 93.4609C48.1068 94.1536 48.1979 94.9557 48.0156 95.8671C47.8333 96.7786 47.5234 97.7083 47.0859 98.6562C46.6484 99.6041 46.1562 100.497 45.6094 101.336C45.0625 102.174 44.5703 102.885 44.1328 103.469C46.1016 103.979 48.0703 104.362 50.0391 104.617C52.0078 104.872 53.9948 105 56 105Z" fill="#79C3F1"/>
</g>
<defs>
<clipPath id="clip0_40_36">
<rect width="112" height="112" fill="white"/>
</clipPath>
</defs>
</svg>
