<svg width="52" height="28" viewBox="0 0 52 28" fill="none" xmlns="http://www.w3.org/2000/svg">
<rect width="52" height="28" rx="14" fill="#040404" fill-opacity="0.21"/>
<g clip-path="url(#clip0_449_5986)">
<path d="M7 14.3165C7 15.3339 7.18301 16.3084 7.51732 17.2094L15.3171 17.571L23.1169 17.2095C23.4512 16.3084 23.6342 15.3339 23.6342 14.3165C23.6342 13.2992 23.4512 12.3247 23.1169 11.4236L15.3171 11.062L7.51732 11.4236C7.18301 12.3247 7 13.2992 7 14.3165Z" fill="#FFDA44"/>
<path d="M15.3169 5.99939C11.7408 5.99939 8.69224 8.25644 7.51709 11.4236H23.1167C21.9415 8.25644 18.8929 5.99939 15.3169 5.99939Z" fill="#D80027"/>
<path d="M23.1169 17.2101H7.51733C8.69248 20.3772 11.7411 22.6343 15.3171 22.6343C18.8932 22.6343 21.9417 20.3772 23.1169 17.2101Z" fill="#496E2D"/>
<path d="M15.3169 11.4243L16.0349 13.6342H18.3587L16.4788 15.0001L17.1968 17.2101L15.3169 15.8443L13.4369 17.2101L14.155 15.0001L12.2751 13.6342H14.5989L15.3169 11.4243Z" fill="black"/>
</g>
<path d="M29.1505 19.4571C28.4132 19.4571 27.8485 19.2471 27.4565 18.8271C27.0738 18.4071 26.8825 17.8145 26.8825 17.0491V11.7851C26.8825 11.0198 27.0738 10.4271 27.4565 10.0071C27.8485 9.58714 28.4132 9.37714 29.1505 9.37714C29.8878 9.37714 30.4478 9.58714 30.8305 10.0071C31.2225 10.4271 31.4185 11.0198 31.4185 11.7851V12.8211H29.9625V11.6871C29.9625 11.0805 29.7058 10.7771 29.1925 10.7771C28.6792 10.7771 28.4225 11.0805 28.4225 11.6871V17.1611C28.4225 17.7585 28.6792 18.0571 29.1925 18.0571C29.7058 18.0571 29.9625 17.7585 29.9625 17.1611V15.6631H31.4185V17.0491C31.4185 17.8145 31.2225 18.4071 30.8305 18.8271C30.4478 19.2471 29.8878 19.4571 29.1505 19.4571ZM32.3399 9.51714H36.5399V10.9171H33.8799V13.5071H35.9939V14.9071H33.8799V17.9171H36.5399V19.3171H32.3399V9.51714ZM37.4258 9.51714H39.7778C40.5431 9.51714 41.1171 9.72247 41.4998 10.1331C41.8825 10.5438 42.0738 11.1458 42.0738 11.9391V16.8951C42.0738 17.6885 41.8825 18.2905 41.4998 18.7011C41.1171 19.1118 40.5431 19.3171 39.7778 19.3171H37.4258V9.51714ZM39.7498 17.9171C40.0018 17.9171 40.1931 17.8425 40.3238 17.6931C40.4638 17.5438 40.5338 17.3011 40.5338 16.9651V11.8691C40.5338 11.5331 40.4638 11.2905 40.3238 11.1411C40.1931 10.9918 40.0018 10.9171 39.7498 10.9171H38.9658V17.9171H39.7498ZM43.1133 9.51714H44.6533V19.3171H43.1133V9.51714Z" fill="#F5F5F5"/>
<defs>
<clipPath id="clip0_449_5986">
<rect width="16.6342" height="16.6342" fill="white" transform="translate(7 6)"/>
</clipPath>
</defs>
</svg>
