<svg width="52" height="28" viewBox="0 0 52 28" fill="none" xmlns="http://www.w3.org/2000/svg">
<rect width="52" height="28" rx="14" fill="#040404" fill-opacity="0.21"/>
<g clip-path="url(#clip0_449_5990)">
<path d="M16.3171 22.6342C20.9105 22.6342 24.6342 18.9105 24.6342 14.3171C24.6342 9.72369 20.9105 6 16.3171 6C11.7237 6 8 9.72369 8 14.3171C8 18.9105 11.7237 22.6342 16.3171 22.6342Z" fill="#F0F0F0"/>
<path d="M16.3173 5.99951C13.0199 5.99951 10.1707 7.91845 8.82544 10.7005H23.809C22.4638 7.91845 19.6146 5.99951 16.3173 5.99951Z" fill="black"/>
<path d="M16.3173 22.6342C13.0199 22.6342 10.1707 20.7153 8.82544 17.9332H23.809C22.4638 20.7153 19.6146 22.6342 16.3173 22.6342Z" fill="#496E2D"/>
<path d="M24.2414 11.7853H8.39276C8.13798 12.5835 8 13.4339 8 14.3166C8 15.1992 8.13798 16.0496 8.39276 16.8479H24.2414C24.4962 16.0496 24.6342 15.1992 24.6342 14.3166C24.6342 13.4339 24.4962 12.5835 24.2414 11.7853Z" fill="#A2001D"/>
<path d="M18.907 9.84329L17.922 9.38867L16.3171 13.0226L14.7123 9.38867L13.7273 9.84329L15.7198 14.3169L13.7273 18.7906L14.7123 19.2452L16.3171 15.6113L17.922 19.2452L18.907 18.7906L16.9145 14.3169L18.907 9.84329Z" fill="#F0F0F0"/>
<path d="M16.9861 10.2717C16.6049 9.85534 16.3172 9.61597 16.3172 9.61597C16.3172 9.61597 16.0295 9.85531 15.6482 10.2717V18.3621C16.0295 18.7785 16.3172 19.0179 16.3172 19.0179C16.3172 19.0179 16.6049 18.7786 16.9861 18.3621V10.2717Z" fill="#F0F0F0"/>
<path d="M14.5093 11.8235V16.8109C14.9122 17.5249 15.4053 18.1101 15.7749 18.498V10.1365C15.4053 10.5244 14.9122 11.1096 14.5093 11.8235Z" fill="#A2001D"/>
<path d="M18.1253 11.8239C17.7223 11.11 17.2292 10.5248 16.8596 10.1368V18.4984C17.2292 18.1104 17.7223 17.5252 18.1253 16.8113V11.8239Z" fill="#A2001D"/>
<path d="M18.1252 11.8226V16.81C18.5331 16.0872 18.8485 15.2324 18.8485 14.3164C18.8485 13.4003 18.5331 12.5455 18.1252 11.8226Z" fill="black"/>
<path d="M14.5091 11.8226V16.81C14.1012 16.0872 13.7859 15.2324 13.7859 14.3164C13.7859 13.4003 14.1012 12.5455 14.5091 11.8226Z" fill="black"/>
</g>
<path d="M27.9805 9.51714H29.5205V13.6471L31.4805 9.51714H33.0205L31.1865 13.1151L33.0485 19.3171H31.4385L30.1365 14.9491L29.5205 16.1951V19.3171H27.9805V9.51714ZM35.6837 19.4571C34.937 19.4571 34.3723 19.2471 33.9897 18.8271C33.607 18.3978 33.4157 17.7865 33.4157 16.9931V16.4331H34.8717V17.1051C34.8717 17.7398 35.1377 18.0571 35.6697 18.0571C35.931 18.0571 36.127 17.9825 36.2577 17.8331C36.3977 17.6745 36.4677 17.4225 36.4677 17.0771C36.4677 16.6665 36.3743 16.3071 36.1877 15.9991C36.001 15.6818 35.6557 15.3038 35.1517 14.8651C34.517 14.3051 34.0737 13.8011 33.8217 13.3531C33.5697 12.8958 33.4437 12.3825 33.4437 11.8131C33.4437 11.0385 33.6397 10.4411 34.0317 10.0211C34.4237 9.5918 34.993 9.37714 35.7397 9.37714C36.477 9.37714 37.0323 9.5918 37.4057 10.0211C37.7883 10.4411 37.9797 11.0478 37.9797 11.8411V12.2471H36.5237V11.7431C36.5237 11.4071 36.4583 11.1645 36.3277 11.0151C36.197 10.8565 36.0057 10.7771 35.7537 10.7771C35.2403 10.7771 34.9837 11.0898 34.9837 11.7151C34.9837 12.0698 35.077 12.4011 35.2637 12.7091C35.4597 13.0171 35.8097 13.3905 36.3137 13.8291C36.9577 14.3891 37.401 14.8978 37.6437 15.3551C37.8863 15.8125 38.0077 16.3491 38.0077 16.9651C38.0077 17.7678 37.807 18.3838 37.4057 18.8131C37.0137 19.2425 36.4397 19.4571 35.6837 19.4571ZM38.8907 9.51714H40.4307V13.5071H42.0827V9.51714H43.6227V19.3171H42.0827V14.9071H40.4307V19.3171H38.8907V9.51714Z" fill="#F5F5F5"/>
<defs>
<clipPath id="clip0_449_5990">
<rect width="16.6342" height="16.6342" fill="white" transform="translate(8 6)"/>
</clipPath>
</defs>
</svg>
