<svg width="54" height="33" viewBox="0 0 54 33" fill="none" xmlns="http://www.w3.org/2000/svg">
<path d="M37.1111 8.28925L27.9055 13.5496H41.4997L52.187 20.8964C52.187 20.8964 53.2396 21.4095 53.1928 21.9023C53.146 22.395 52.2809 31.1312 51.8204 31.8899C51.3599 32.6486 50.6888 32.5186 50.6888 32.5186H0.26983C0.26983 32.5186 -0.164339 31.8716 0.26983 31.1355C0.703999 30.3994 13.8653 2.68724 14.8441 1.91079C15.823 1.13433 16.4788 1.28212 16.4788 1.28212L37.9791 1.29988C37.9791 1.29988 38.9979 1.88898 38.7335 3.04238C38.469 4.19579 37.1111 8.28925 37.1111 8.28925Z" fill="#0E7BB2"/>
<path d="M20.4531 5.43989H30.9738L27.9053 13.1113L45.4399 25.6046H29.7418L24.4199 20.5634L22.2066 25.6046H9.71323L20.4531 5.43989Z" fill="white"/>
<ellipse cx="42.4376" cy="2.90753" rx="2.08731" ry="2.08721" fill="#0E7BB2"/>
</svg>
