<svg width="32" height="32" viewBox="0 0 32 32" fill="none" xmlns="http://www.w3.org/2000/svg">
<path d="M0 16C0 7.16344 7.16344 0 16 0C24.8366 0 32 7.16344 32 16C32 24.8366 24.8366 32 16 32C7.16344 32 0 24.8366 0 16Z" fill="#E0F3FD"/>
<path d="M20.1642 13.0582L16.3948 15.2122H21.9612L26.3373 18.2205C26.3373 18.2205 26.7683 18.4306 26.7492 18.6323C26.73 18.8341 26.3758 22.4113 26.1872 22.7219C25.9987 23.0326 25.7239 22.9794 25.7239 22.9794H5.07886C5.07886 22.9794 4.90108 22.7144 5.07886 22.413C5.25664 22.1116 10.6458 10.7644 11.0466 10.4464C11.4474 10.1285 11.7159 10.189 11.7159 10.189L20.5196 10.1963C20.5196 10.1963 20.9368 10.4375 20.8285 10.9098C20.7202 11.3821 20.1642 13.0582 20.1642 13.0582Z" fill="#0E7BB2"/>
<path d="M13.3434 11.8914H17.6514L16.3949 15.0326L23.5748 20.1483H17.1469L14.9677 18.084L14.0614 20.1483H8.9458L13.3434 11.8914Z" fill="white"/>
<ellipse cx="22.3454" cy="10.8546" rx="0.854689" ry="0.854648" fill="#0E7BB2"/>
</svg>
