<svg width="52" height="28" viewBox="0 0 52 28" fill="none" xmlns="http://www.w3.org/2000/svg">
<rect width="52" height="28" rx="14" fill="#040404" fill-opacity="0.21"/>
<g clip-path="url(#clip0_449_5982)">
<path d="M15.3171 22.6342C19.9105 22.6342 23.6342 18.9105 23.6342 14.3171C23.6342 9.72369 19.9105 6 15.3171 6C10.7237 6 7 9.72369 7 14.3171C7 18.9105 10.7237 22.6342 15.3171 22.6342Z" fill="#F0F0F0"/>
<path d="M6.99976 14.3172C6.99976 17.8933 9.25681 20.9418 12.424 22.117V6.51746C9.25681 7.69257 6.99976 10.7412 6.99976 14.3172Z" fill="#6DA544"/>
<path d="M23.6342 14.3172C23.6342 10.7412 21.3771 7.69257 18.21 6.51746V22.117C21.3771 20.9418 23.6342 17.8933 23.6342 14.3172Z" fill="#6DA544"/>
</g>
<path d="M26.9805 9.51714H28.9125L30.4105 15.3831H30.4385V9.51714H31.8105V19.3171H30.2285L28.3805 12.1631H28.3525V19.3171H26.9805V9.51714ZM35.1391 19.4571C34.3924 19.4571 33.8231 19.2471 33.4311 18.8271C33.0391 18.3978 32.8431 17.7865 32.8431 16.9931V11.8411C32.8431 11.0478 33.0391 10.4411 33.4311 10.0211C33.8231 9.5918 34.3924 9.37714 35.1391 9.37714C35.8858 9.37714 36.4551 9.5918 36.8471 10.0211C37.2391 10.4411 37.4351 11.0478 37.4351 11.8411V12.6811H35.9791V11.7431C35.9791 11.0991 35.7131 10.7771 35.1811 10.7771C34.6491 10.7771 34.3831 11.0991 34.3831 11.7431V17.1051C34.3831 17.7398 34.6491 18.0571 35.1811 18.0571C35.7131 18.0571 35.9791 17.7398 35.9791 17.1051V15.1871H35.2091V13.7871H37.4351V16.9931C37.4351 17.7865 37.2391 18.3978 36.8471 18.8271C36.4551 19.2471 35.8858 19.4571 35.1391 19.4571ZM38.4239 9.51714H40.3559L41.8539 15.3831H41.8819V9.51714H43.2539V19.3171H41.6719L39.8239 12.1631H39.7959V19.3171H38.4239V9.51714Z" fill="#F5F5F5"/>
<defs>
<clipPath id="clip0_449_5982">
<rect width="16.6342" height="16.6342" fill="white" transform="translate(7 6)"/>
</clipPath>
</defs>
</svg>
