<svg width="67" height="70" viewBox="0 0 67 70" fill="none" xmlns="http://www.w3.org/2000/svg">
<g filter="url(#filter0_ddd_791_6063)">
<rect x="1.5" y="1" width="64" height="64" rx="20" fill="white"/>
<path d="M35.1092 23.4C34.6551 24.6819 34.5733 26.0663 34.8734 27.3927C35.1735 28.7192 35.8431 29.9335 36.8048 30.8952C37.7664 31.8568 38.9808 32.5264 40.3072 32.8265C41.6337 33.1266 43.018 33.0449 44.3 32.5908V43.8C44.3 44.1183 44.1735 44.4235 43.9485 44.6485C43.7234 44.8736 43.4182 45 43.1 45H23.9C23.5817 45 23.2765 44.8736 23.0514 44.6485C22.8264 44.4235 22.7 44.1183 22.7 43.8V24.6C22.7 24.2817 22.8264 23.9765 23.0514 23.7515C23.2765 23.5264 23.5817 23.4 23.9 23.4H35.1092ZM41.9 30.6C40.6269 30.6 39.406 30.0943 38.5058 29.1941C37.6057 28.2939 37.1 27.073 37.1 25.8C37.1 24.527 37.6057 23.3061 38.5058 22.4059C39.406 21.5057 40.6269 21 41.9 21C43.173 21 44.3939 21.5057 45.2941 22.4059C46.1942 23.3061 46.7 24.527 46.7 25.8C46.7 27.073 46.1942 28.2939 45.2941 29.1941C44.3939 30.0943 43.173 30.6 41.9 30.6Z" fill="#335CFF"/>
</g>
<defs>
<filter id="filter0_ddd_791_6063" x="0" y="0" width="67" height="69.5" filterUnits="userSpaceOnUse" color-interpolation-filters="sRGB">
<feFlood flood-opacity="0" result="BackgroundImageFix"/>
<feColorMatrix in="SourceAlpha" type="matrix" values="0 0 0 0 0 0 0 0 0 0 0 0 0 0 0 0 0 0 127 0" result="hardAlpha"/>
<feMorphology radius="1" operator="dilate" in="SourceAlpha" result="effect1_dropShadow_791_6063"/>
<feOffset/>
<feComposite in2="hardAlpha" operator="out"/>
<feColorMatrix type="matrix" values="0 0 0 0 0.0901961 0 0 0 0 0.0901961 0 0 0 0 0.0901961 0 0 0 0.02 0"/>
<feBlend mode="normal" in2="BackgroundImageFix" result="effect1_dropShadow_791_6063"/>
<feColorMatrix in="SourceAlpha" type="matrix" values="0 0 0 0 0 0 0 0 0 0 0 0 0 0 0 0 0 0 127 0" result="hardAlpha"/>
<feMorphology radius="0.5" operator="erode" in="SourceAlpha" result="effect2_dropShadow_791_6063"/>
<feOffset dy="1"/>
<feGaussianBlur stdDeviation="0.5"/>
<feComposite in2="hardAlpha" operator="out"/>
<feColorMatrix type="matrix" values="0 0 0 0 0.0901961 0 0 0 0 0.0901961 0 0 0 0 0.0901961 0 0 0 0.06 0"/>
<feBlend mode="normal" in2="effect1_dropShadow_791_6063" result="effect2_dropShadow_791_6063"/>
<feColorMatrix in="SourceAlpha" type="matrix" values="0 0 0 0 0 0 0 0 0 0 0 0 0 0 0 0 0 0 127 0" result="hardAlpha"/>
<feMorphology radius="1.5" operator="erode" in="SourceAlpha" result="effect3_dropShadow_791_6063"/>
<feOffset dy="3"/>
<feGaussianBlur stdDeviation="1.5"/>
<feComposite in2="hardAlpha" operator="out"/>
<feColorMatrix type="matrix" values="0 0 0 0 0.0901961 0 0 0 0 0.0901961 0 0 0 0 0.0901961 0 0 0 0.06 0"/>
<feBlend mode="normal" in2="effect2_dropShadow_791_6063" result="effect3_dropShadow_791_6063"/>
<feBlend mode="normal" in="SourceGraphic" in2="effect3_dropShadow_791_6063" result="shape"/>
</filter>
</defs>
</svg>
