<svg width="67" height="70" viewBox="0 0 67 70" fill="none" xmlns="http://www.w3.org/2000/svg">
<g filter="url(#filter0_ddd_791_6043)">
<rect x="1.5" y="1" width="64" height="64" rx="20" fill="white"/>
<path d="M22.7 24.594C22.7 23.2716 23.7716 22.2 25.094 22.2H41.906C43.2284 22.2 44.3 23.2716 44.3 24.594V41.406C44.3 42.0409 44.0478 42.6498 43.5988 43.0988C43.1498 43.5477 42.5409 43.8 41.906 43.8H25.094C24.4591 43.8 23.8501 43.5477 23.4012 43.0988C22.9522 42.6498 22.7 42.0409 22.7 41.406V24.594ZM26.7284 40.2H40.5164C39.7431 39.088 38.7122 38.1798 37.5117 37.5529C36.3112 36.926 34.9767 36.5991 33.6224 36.6C32.268 36.5991 30.9336 36.926 29.7331 37.5529C28.5326 38.1798 27.5016 39.088 26.7284 40.2ZM33.5 34.2C34.0515 34.2 34.5977 34.0913 35.1073 33.8802C35.6168 33.6692 36.0798 33.3598 36.4698 32.9698C36.8599 32.5798 37.1692 32.1168 37.3803 31.6072C37.5914 31.0977 37.7 30.5515 37.7 30C37.7 29.4484 37.5914 28.9022 37.3803 28.3927C37.1692 27.8831 36.8599 27.4201 36.4698 27.0301C36.0798 26.6401 35.6168 26.3307 35.1073 26.1197C34.5977 25.9086 34.0515 25.8 33.5 25.8C32.3861 25.8 31.3178 26.2425 30.5301 27.0301C29.7425 27.8178 29.3 28.886 29.3 30C29.3 31.1139 29.7425 32.1821 30.5301 32.9698C31.3178 33.7575 32.3861 34.2 33.5 34.2Z" fill="#335CFF"/>
</g>
<defs>
<filter id="filter0_ddd_791_6043" x="0" y="0" width="67" height="69.5" filterUnits="userSpaceOnUse" color-interpolation-filters="sRGB">
<feFlood flood-opacity="0" result="BackgroundImageFix"/>
<feColorMatrix in="SourceAlpha" type="matrix" values="0 0 0 0 0 0 0 0 0 0 0 0 0 0 0 0 0 0 127 0" result="hardAlpha"/>
<feMorphology radius="1" operator="dilate" in="SourceAlpha" result="effect1_dropShadow_791_6043"/>
<feOffset/>
<feComposite in2="hardAlpha" operator="out"/>
<feColorMatrix type="matrix" values="0 0 0 0 0.0901961 0 0 0 0 0.0901961 0 0 0 0 0.0901961 0 0 0 0.02 0"/>
<feBlend mode="normal" in2="BackgroundImageFix" result="effect1_dropShadow_791_6043"/>
<feColorMatrix in="SourceAlpha" type="matrix" values="0 0 0 0 0 0 0 0 0 0 0 0 0 0 0 0 0 0 127 0" result="hardAlpha"/>
<feMorphology radius="0.5" operator="erode" in="SourceAlpha" result="effect2_dropShadow_791_6043"/>
<feOffset dy="1"/>
<feGaussianBlur stdDeviation="0.5"/>
<feComposite in2="hardAlpha" operator="out"/>
<feColorMatrix type="matrix" values="0 0 0 0 0.0901961 0 0 0 0 0.0901961 0 0 0 0 0.0901961 0 0 0 0.06 0"/>
<feBlend mode="normal" in2="effect1_dropShadow_791_6043" result="effect2_dropShadow_791_6043"/>
<feColorMatrix in="SourceAlpha" type="matrix" values="0 0 0 0 0 0 0 0 0 0 0 0 0 0 0 0 0 0 127 0" result="hardAlpha"/>
<feMorphology radius="1.5" operator="erode" in="SourceAlpha" result="effect3_dropShadow_791_6043"/>
<feOffset dy="3"/>
<feGaussianBlur stdDeviation="1.5"/>
<feComposite in2="hardAlpha" operator="out"/>
<feColorMatrix type="matrix" values="0 0 0 0 0.0901961 0 0 0 0 0.0901961 0 0 0 0 0.0901961 0 0 0 0.06 0"/>
<feBlend mode="normal" in2="effect2_dropShadow_791_6043" result="effect3_dropShadow_791_6043"/>
<feBlend mode="normal" in="SourceGraphic" in2="effect3_dropShadow_791_6043" result="shape"/>
</filter>
</defs>
</svg>
