<svg width="446" height="175" viewBox="0 0 446 175" fill="none" xmlns="http://www.w3.org/2000/svg">
<g filter="url(#filter0_dd_449_6043)">
<path d="M30.8442 8.16204C30.8442 3.65427 34.4985 0 39.0063 0H408.338C412.846 0 416.5 3.65427 416.5 8.16204V57.1343C416.5 61.642 412.846 65.2963 408.338 65.2963H39.0063C34.4985 65.2963 30.8442 61.642 30.8442 57.1343V8.16204Z" fill="white"/>
<g clip-path="url(#clip0_449_6043)">
<path d="M66.5518 20.4052H91.0379V44.8913H66.5518V20.4052Z" fill="white"/>
<path d="M66.5518 20.4052H91.0379V27.751H66.5518V20.4052Z" fill="#000001"/>
<path d="M66.5518 37.5454H91.0379V44.8912H66.5518V37.5454Z" fill="#006600"/>
<path d="M75.5142 39.9176L75.7208 40.0706L81.0809 27.6745C81.3908 27.5827 81.563 27.1848 81.7352 26.7869C81.8499 26.5114 82.3091 25.4555 82.5042 24.0781C81.9596 24.7233 81.4982 25.4833 81.1383 26.3278C80.9661 26.7257 80.794 27.1236 80.8743 27.5368L75.5142 39.9176Z" fill="black" stroke="black" stroke-width="0.382595"/>
<path d="M75.5142 39.9176L75.7208 40.0706L81.0809 27.6745C81.3908 27.5827 81.563 27.1848 81.7352 26.7869C81.8499 26.5114 82.3091 25.4555 82.5042 24.0781C81.9596 24.7233 81.4982 25.4833 81.1383 26.3278C80.9661 26.7257 80.794 27.1236 80.8743 27.5368L75.5142 39.9176Z" fill="white"/>
<path d="M82.0781 39.9176L81.8715 40.0706L76.5114 27.6745C76.2015 27.5827 76.0293 27.1848 75.8571 26.7869C75.7423 26.5114 75.2832 25.4555 75.0881 24.0781C75.6326 24.7233 76.0941 25.4833 76.454 26.3278C76.6261 26.7257 76.7983 27.1236 76.718 27.5368L82.0781 39.9176Z" fill="black" stroke="black" stroke-width="0.382595"/>
<path d="M82.0781 39.9176L81.8715 40.0706L76.5114 27.6745C76.2015 27.5827 76.0293 27.1848 75.8571 26.7869C75.7423 26.5114 75.2832 25.4555 75.0881 24.0781C75.6326 24.7233 76.0941 25.4833 76.454 26.3278C76.6261 26.7257 76.7983 27.1236 76.718 27.5368L82.0781 39.9176Z" fill="white"/>
<path d="M91.0573 28.9753H80.9759C80.6316 27.751 79.4838 25.3024 78.7951 25.3024C78.1065 25.3024 76.9587 27.751 76.6143 28.9753H66.5444V36.3211H76.6143C76.9587 37.5454 78.1065 39.994 78.7951 39.994C79.4838 39.994 80.6316 37.5454 80.9759 36.3211H91.0573V28.9753Z" fill="#BB0000"/>
<path d="M80.9748 36.3212C81.3191 35.0969 81.5487 33.8726 81.5487 32.6483C81.5487 31.424 81.3191 30.1996 80.9748 28.9753C80.6304 30.1996 80.4009 31.424 80.4009 32.6483C80.4009 33.8726 80.6304 35.0969 80.9748 36.3212Z" fill="black"/>
<path d="M76.6151 36.3212C76.2707 35.0969 76.0412 33.8726 76.0412 32.6483C76.0412 31.424 76.2707 30.1996 76.6151 28.9753C76.9594 30.1996 77.189 31.424 77.189 32.6483C77.189 33.8726 76.9594 35.0969 76.6151 36.3212Z" fill="black"/>
<path d="M78.796 33.5666C79.0496 33.5666 79.2551 33.1555 79.2551 32.6483C79.2551 32.1412 79.0496 31.7301 78.796 31.7301C78.5425 31.7301 78.3369 32.1412 78.3369 32.6483C78.3369 33.1555 78.5425 33.5666 78.796 33.5666Z" fill="white"/>
<path d="M78.9106 33.5359C78.9106 33.5359 79.3698 34.7602 79.3698 36.7497C79.3698 38.7392 78.9106 39.9635 78.9106 39.9635V33.5359Z" fill="white"/>
<path d="M78.6821 31.7606C78.6821 31.7606 78.223 30.5363 78.223 28.5468C78.223 26.5573 78.6821 25.333 78.6821 25.333V31.7606Z" fill="white"/>
<path d="M78.6821 33.5359C78.6821 33.5359 78.223 34.7602 78.223 36.7497C78.223 38.7392 78.6821 39.9635 78.6821 39.9635V33.5359Z" fill="white"/>
<path d="M78.9106 31.7606C78.9106 31.7606 79.3698 30.5363 79.3698 28.5468C79.3698 26.5573 78.9106 25.333 78.9106 25.333V31.7606Z" fill="white"/>
</g>
<path d="M109.446 25.9782H111.469V26.0462L106.948 31.2643L111.775 38.0802V38.1482H109.854L105.894 32.4711L104.024 34.6298V38.1482H102.461V25.9782H104.024V32.2502H104.092L109.446 25.9782ZM116.17 38.4201C114.946 38.4201 113.937 38.0009 113.144 37.1624C112.351 36.3238 111.954 35.2643 111.954 33.9839C111.954 32.7148 112.339 31.6609 113.11 30.8224C113.881 29.9725 114.866 29.5476 116.068 29.5476C117.303 29.5476 118.283 29.9499 119.008 30.7544C119.745 31.5476 120.113 32.6638 120.113 34.1029L120.096 34.2728H113.552C113.575 35.0887 113.847 35.7459 114.368 36.2445C114.889 36.7431 115.512 36.9924 116.238 36.9924C117.235 36.9924 118.017 36.4938 118.583 35.4966L119.977 36.1765C119.603 36.8791 119.082 37.4286 118.413 37.8252C117.756 38.2218 117.008 38.4201 116.17 38.4201ZM113.671 32.981H118.447C118.402 32.4031 118.164 31.9272 117.733 31.5533C117.314 31.168 116.747 30.9754 116.034 30.9754C115.444 30.9754 114.934 31.1567 114.504 31.5193C114.085 31.8819 113.807 32.3691 113.671 32.981ZM121.543 29.8196H123.039V30.9754H123.107C123.345 30.5674 123.707 30.2275 124.194 29.9555C124.693 29.6836 125.209 29.5476 125.741 29.5476C126.761 29.5476 127.543 29.8422 128.087 30.4315C128.642 31.0094 128.92 31.8366 128.92 32.9131V38.1482H127.356V33.015C127.322 31.6553 126.636 30.9754 125.299 30.9754C124.676 30.9754 124.155 31.2303 123.736 31.7403C123.316 32.2388 123.107 32.8394 123.107 33.542V38.1482H121.543V29.8196ZM138.034 29.8196L132.816 41.8196H131.201L133.139 37.6213L129.705 29.8196H131.405L133.887 35.8026H133.921L136.334 29.8196H138.034ZM139.762 35.5986C139.762 36.0065 139.932 36.3465 140.272 36.6184C140.623 36.8904 141.031 37.0264 141.496 37.0264C142.153 37.0264 142.736 36.7828 143.246 36.2955C143.768 35.8082 144.028 35.236 144.028 34.5788C143.541 34.1935 142.861 34.0009 141.989 34.0009C141.354 34.0009 140.821 34.1539 140.391 34.4598C139.972 34.7658 139.762 35.1454 139.762 35.5986ZM141.785 29.5476C142.94 29.5476 143.853 29.8592 144.521 30.4825C145.19 31.0944 145.524 31.9386 145.524 33.015V38.1482H144.028V36.9924H143.96C143.314 37.9442 142.453 38.4201 141.377 38.4201C140.459 38.4201 139.688 38.1482 139.065 37.6043C138.453 37.0604 138.147 36.3805 138.147 35.5646C138.147 34.7034 138.47 34.0179 139.116 33.508C139.773 32.998 140.646 32.7431 141.734 32.7431C142.663 32.7431 143.428 32.9131 144.028 33.253V32.8961C144.028 32.3522 143.813 31.8932 143.382 31.5193C142.952 31.134 142.447 30.9414 141.87 30.9414C140.997 30.9414 140.306 31.3097 139.796 32.0462L138.419 31.1793C139.178 30.0915 140.3 29.5476 141.785 29.5476ZM147.288 29.8196H148.783V30.9754H148.851C149.089 30.5674 149.452 30.2275 149.939 29.9555C150.438 29.6836 150.953 29.5476 151.486 29.5476C152.506 29.5476 153.288 29.8422 153.832 30.4315C154.387 31.0094 154.664 31.8366 154.664 32.9131V38.1482H153.101V33.015C153.067 31.6553 152.381 30.9754 151.044 30.9754C150.421 30.9754 149.9 31.2303 149.48 31.7403C149.061 32.2388 148.851 32.8394 148.851 33.542V38.1482H147.288V29.8196ZM167.505 34.9017C167.505 35.9669 167.114 36.8224 166.332 37.4683C165.539 38.1029 164.576 38.4201 163.443 38.4201C162.434 38.4201 161.545 38.1255 160.774 37.5363C160.003 36.9471 159.471 36.1425 159.176 35.1227L160.672 34.5108C160.774 34.8734 160.916 35.202 161.097 35.4966C161.278 35.7912 161.488 36.0462 161.726 36.2615C161.975 36.4655 162.247 36.6298 162.542 36.7544C162.836 36.8677 163.148 36.9244 163.477 36.9244C164.19 36.9244 164.774 36.7431 165.227 36.3805C165.681 36.0065 165.907 35.5136 165.907 34.9017C165.907 34.3918 165.72 33.9556 165.346 33.5929C164.995 33.2417 164.338 32.9017 163.375 32.5731C162.4 32.2218 161.794 31.9839 161.556 31.8592C160.264 31.202 159.618 30.2332 159.618 28.9527C159.618 28.0575 159.975 27.2927 160.689 26.6581C161.414 26.0235 162.304 25.7062 163.358 25.7062C164.287 25.7062 165.091 25.9442 165.771 26.4201C166.451 26.8847 166.904 27.4683 167.131 28.1708L165.669 28.7827C165.533 28.3295 165.261 27.9555 164.853 27.6609C164.457 27.355 163.969 27.202 163.392 27.202C162.78 27.202 162.264 27.372 161.845 27.7119C161.426 28.0292 161.216 28.4428 161.216 28.9527C161.216 29.372 161.38 29.7346 161.709 30.0405C162.071 30.3465 162.859 30.7091 164.071 31.1284C165.307 31.5476 166.185 32.0632 166.706 32.6751C167.239 33.2757 167.505 34.0179 167.505 34.9017ZM169.115 25.9782H170.679V29.8196L170.611 30.9754H170.679C170.917 30.5674 171.279 30.2275 171.767 29.9555C172.265 29.6836 172.781 29.5476 173.313 29.5476C174.333 29.5476 175.115 29.8422 175.659 30.4315C176.214 31.0094 176.492 31.8366 176.492 32.9131V38.1482H174.928V33.219C174.928 31.7233 174.265 30.9754 172.939 30.9754C172.305 30.9754 171.767 31.2417 171.325 31.7742C170.894 32.2955 170.679 32.9074 170.679 33.6099V38.1482H169.115V25.9782ZM180.35 26.947C180.35 27.253 180.242 27.5136 180.027 27.7289C179.812 27.9442 179.551 28.0519 179.245 28.0519C178.939 28.0519 178.679 27.9442 178.463 27.7289C178.248 27.5136 178.14 27.253 178.14 26.947C178.14 26.6411 178.248 26.3805 178.463 26.1652C178.679 25.9499 178.939 25.8422 179.245 25.8422C179.551 25.8422 179.812 25.9499 180.027 26.1652C180.242 26.3805 180.35 26.6411 180.35 26.947ZM180.027 29.8196V38.1482H178.463V29.8196H180.027ZM183.626 25.9782V38.1482H182.062V25.9782H183.626ZM187.095 25.9782V38.1482H185.531V25.9782H187.095ZM191.023 26.947C191.023 27.253 190.916 27.5136 190.7 27.7289C190.485 27.9442 190.224 28.0519 189.918 28.0519C189.612 28.0519 189.352 27.9442 189.136 27.7289C188.921 27.5136 188.814 27.253 188.814 26.947C188.814 26.6411 188.921 26.3805 189.136 26.1652C189.352 25.9499 189.612 25.8422 189.918 25.8422C190.224 25.8422 190.485 25.9499 190.7 26.1652C190.916 26.3805 191.023 26.6411 191.023 26.947ZM190.7 29.8196V38.1482H189.136V29.8196H190.7ZM192.735 29.8196H194.231V30.9754H194.299C194.537 30.5674 194.9 30.2275 195.387 29.9555C195.885 29.6836 196.401 29.5476 196.934 29.5476C197.953 29.5476 198.735 29.8422 199.279 30.4315C199.834 31.0094 200.112 31.8366 200.112 32.9131V38.1482H198.548V33.015C198.514 31.6553 197.829 30.9754 196.492 30.9754C195.868 30.9754 195.347 31.2303 194.928 31.7403C194.509 32.2388 194.299 32.8394 194.299 33.542V38.1482H192.735V29.8196ZM205.604 36.9924C206.374 36.9924 207.003 36.7148 207.491 36.1595C208.001 35.6043 208.256 34.8791 208.256 33.9839C208.256 33.1114 208.001 32.3918 207.491 31.8252C206.992 31.2587 206.363 30.9754 205.604 30.9754C204.856 30.9754 204.227 31.2587 203.717 31.8252C203.207 32.3918 202.952 33.1114 202.952 33.9839C202.952 34.8677 203.207 35.5873 203.717 36.1425C204.227 36.7091 204.856 36.9924 205.604 36.9924ZM205.553 42.0915C205.088 42.0915 204.652 42.0292 204.244 41.9046C203.836 41.7913 203.462 41.627 203.122 41.4117C202.794 41.1964 202.51 40.9414 202.273 40.6468C202.035 40.3522 201.853 40.0236 201.729 39.6609L203.207 39.049C203.377 39.5363 203.672 39.9272 204.091 40.2219C204.51 40.5165 204.998 40.6638 205.553 40.6638C206.403 40.6638 207.066 40.4088 207.542 39.8989C208.018 39.389 208.256 38.6864 208.256 37.7913V36.9924H208.188C207.893 37.4343 207.491 37.7856 206.981 38.0462C206.482 38.2955 205.938 38.4201 205.349 38.4201C204.261 38.4201 203.326 37.9952 202.544 37.1454C201.774 36.2728 201.389 35.219 201.389 33.9839C201.389 32.7488 201.774 31.7006 202.544 30.8394C203.326 29.9782 204.261 29.5476 205.349 29.5476C205.938 29.5476 206.482 29.6779 206.981 29.9385C207.491 30.1878 207.893 30.5335 208.188 30.9754H208.256V29.8196H209.751V37.7913C209.751 39.1284 209.372 40.1765 208.612 40.9357C207.842 41.7063 206.822 42.0915 205.553 42.0915Z" fill="#010513"/>
</g>
<g filter="url(#filter1_dd_449_6043)">
<path d="M17.4067 44.5073C17.4067 39.7011 21.3029 35.8049 26.1091 35.8049H419.892C424.698 35.8049 428.594 39.7011 428.594 44.5073V96.7216C428.594 101.528 424.698 105.424 419.892 105.424H26.1091C21.3029 105.424 17.4067 101.528 17.4067 96.7216V44.5073Z" fill="white"/>
<g clip-path="url(#clip1_449_6043)">
<path d="M55.4785 57.5609H81.5857V83.6681H55.4785V57.5609Z" fill="#006B3F"/>
<path d="M55.4785 57.5609H81.5857V74.9657H55.4785V57.5609Z" fill="#FCD116"/>
<path d="M55.4785 57.5609H81.5857V66.2633H55.4785V57.5609Z" fill="#CE1126"/>
<path d="M68.5293 66.2633L70.6505 74.9657L65.0986 69.5865H71.9558L66.4081 74.9657L68.5293 66.2633Z" fill="#000001"/>
</g>
<path d="M104.72 71.0224C104.72 72.7221 104.216 74.0763 103.207 75.0848C102.074 76.2859 100.584 76.8865 98.737 76.8865C96.9693 76.8865 95.4735 76.2746 94.2497 75.0508C93.026 73.827 92.4141 72.3199 92.4141 70.5295C92.4141 68.7391 93.026 67.2321 94.2497 66.0083C95.4735 64.7845 96.9693 64.1726 98.737 64.1726C99.6322 64.1726 100.476 64.3312 101.27 64.6485C102.063 64.9658 102.714 65.4134 103.224 65.9913L102.102 67.1131C101.729 66.6598 101.241 66.3085 100.641 66.0592C100.051 65.7986 99.4169 65.6683 98.737 65.6683C97.4112 65.6683 96.2894 66.1272 95.3716 67.0451C94.465 67.9743 94.0118 69.1357 94.0118 70.5295C94.0118 71.9233 94.465 73.0848 95.3716 74.0139C96.2894 74.9318 97.4112 75.3907 98.737 75.3907C99.9495 75.3907 100.958 75.0508 101.763 74.3709C102.567 73.691 103.032 72.7561 103.156 71.5663H98.737V70.1046H104.635C104.692 70.4219 104.72 70.7278 104.72 71.0224ZM106.348 64.4445H107.912V68.2859L107.844 69.4417H107.912C108.15 69.0338 108.512 68.6938 109 68.4219C109.498 68.1499 110.014 68.0139 110.546 68.0139C111.566 68.0139 112.348 68.3085 112.892 68.8978C113.447 69.4757 113.725 70.3029 113.725 71.3794V76.6145H112.161V71.6853C112.161 70.1896 111.498 69.4417 110.172 69.4417C109.538 69.4417 109 69.708 108.558 70.2406C108.127 70.7618 107.912 71.3737 107.912 72.0763V76.6145H106.348V64.4445ZM116.616 74.0649C116.616 74.4729 116.786 74.8128 117.126 75.0848C117.477 75.3567 117.885 75.4927 118.35 75.4927C119.007 75.4927 119.591 75.2491 120.101 74.7618C120.622 74.2746 120.882 73.7023 120.882 73.0451C120.395 72.6598 119.715 72.4672 118.843 72.4672C118.208 72.4672 117.676 72.6202 117.245 72.9261C116.826 73.2321 116.616 73.6117 116.616 74.0649ZM118.639 68.0139C119.795 68.0139 120.707 68.3255 121.375 68.9488C122.044 69.5607 122.378 70.4049 122.378 71.4813V76.6145H120.882V75.4587H120.815C120.169 76.4105 119.307 76.8865 118.231 76.8865C117.313 76.8865 116.543 76.6145 115.919 76.0706C115.307 75.5267 115.001 74.8468 115.001 74.0309C115.001 73.1697 115.324 72.4842 115.97 71.9743C116.628 71.4644 117.5 71.2094 118.588 71.2094C119.517 71.2094 120.282 71.3794 120.882 71.7193V71.3624C120.882 70.8185 120.667 70.3595 120.237 69.9856C119.806 69.6003 119.302 69.4077 118.724 69.4077C117.851 69.4077 117.16 69.776 116.65 70.5125L115.273 69.6457C116.033 68.5578 117.154 68.0139 118.639 68.0139ZM124.142 68.2859H125.638V69.4417H125.706C125.944 69.0338 126.306 68.6938 126.794 68.4219C127.292 68.1499 127.808 68.0139 128.34 68.0139C129.36 68.0139 130.142 68.3085 130.686 68.8978C131.241 69.4757 131.519 70.3029 131.519 71.3794V76.6145H129.955V71.4813C129.921 70.1216 129.235 69.4417 127.898 69.4417C127.275 69.4417 126.754 69.6966 126.335 70.2066C125.915 70.7051 125.706 71.3057 125.706 72.0083V76.6145H124.142V68.2859ZM134.41 74.0649C134.41 74.4729 134.58 74.8128 134.92 75.0848C135.271 75.3567 135.679 75.4927 136.144 75.4927C136.801 75.4927 137.385 75.2491 137.895 74.7618C138.416 74.2746 138.676 73.7023 138.676 73.0451C138.189 72.6598 137.509 72.4672 136.637 72.4672C136.002 72.4672 135.47 72.6202 135.039 72.9261C134.62 73.2321 134.41 73.6117 134.41 74.0649ZM136.433 68.0139C137.589 68.0139 138.501 68.3255 139.169 68.9488C139.838 69.5607 140.172 70.4049 140.172 71.4813V76.6145H138.676V75.4587H138.608C137.963 76.4105 137.101 76.8865 136.025 76.8865C135.107 76.8865 134.336 76.6145 133.713 76.0706C133.101 75.5267 132.795 74.8468 132.795 74.0309C132.795 73.1697 133.118 72.4842 133.764 71.9743C134.421 71.4644 135.294 71.2094 136.382 71.2094C137.311 71.2094 138.076 71.3794 138.676 71.7193V71.3624C138.676 70.8185 138.461 70.3595 138.031 69.9856C137.6 69.6003 137.096 69.4077 136.518 69.4077C135.645 69.4077 134.954 69.776 134.444 70.5125L133.067 69.6457C133.827 68.5578 134.948 68.0139 136.433 68.0139ZM143.959 65.4134C143.959 65.7193 143.851 65.9799 143.636 66.1952C143.42 66.4105 143.16 66.5182 142.854 66.5182C142.548 66.5182 142.287 66.4105 142.072 66.1952C141.857 65.9799 141.749 65.7193 141.749 65.4134C141.749 65.1074 141.857 64.8468 142.072 64.6315C142.287 64.4162 142.548 64.3085 142.854 64.3085C143.16 64.3085 143.42 64.4162 143.636 64.6315C143.851 64.8468 143.959 65.1074 143.959 65.4134ZM143.636 68.2859V76.6145H142.072V68.2859H143.636ZM146.726 74.0649C146.726 74.4729 146.896 74.8128 147.236 75.0848C147.588 75.3567 147.996 75.4927 148.46 75.4927C149.117 75.4927 149.701 75.2491 150.211 74.7618C150.732 74.2746 150.993 73.7023 150.993 73.0451C150.505 72.6598 149.826 72.4672 148.953 72.4672C148.319 72.4672 147.786 72.6202 147.355 72.9261C146.936 73.2321 146.726 73.6117 146.726 74.0649ZM148.749 68.0139C149.905 68.0139 150.817 68.3255 151.486 68.9488C152.154 69.5607 152.489 70.4049 152.489 71.4813V76.6145H150.993V75.4587H150.925C150.279 76.4105 149.418 76.8865 148.341 76.8865C147.423 76.8865 146.653 76.6145 146.03 76.0706C145.418 75.5267 145.112 74.8468 145.112 74.0309C145.112 73.1697 145.435 72.4842 146.081 71.9743C146.738 71.4644 147.61 71.2094 148.698 71.2094C149.627 71.2094 150.392 71.3794 150.993 71.7193V71.3624C150.993 70.8185 150.777 70.3595 150.347 69.9856C149.916 69.6003 149.412 69.4077 148.834 69.4077C147.962 69.4077 147.27 69.776 146.76 70.5125L145.384 69.6457C146.143 68.5578 147.265 68.0139 148.749 68.0139ZM154.252 68.2859H155.748V69.4417H155.816C156.054 69.0338 156.417 68.6938 156.904 68.4219C157.402 68.1499 157.918 68.0139 158.451 68.0139C159.47 68.0139 160.252 68.3085 160.796 68.8978C161.351 69.4757 161.629 70.3029 161.629 71.3794V76.6145H160.065V71.4813C160.031 70.1216 159.346 69.4417 158.009 69.4417C157.385 69.4417 156.864 69.6966 156.445 70.2066C156.026 70.7051 155.816 71.3057 155.816 72.0083V76.6145H154.252V68.2859ZM172.867 76.8865C171.066 76.8865 169.559 76.2802 168.346 75.0678C167.145 73.8553 166.544 72.3425 166.544 70.5295C166.544 68.7165 167.145 67.2094 168.346 66.0083C169.547 64.7845 171.054 64.1726 172.867 64.1726C174.703 64.1726 176.193 64.8354 177.338 66.1612L176.216 67.249C175.343 66.1952 174.227 65.6683 172.867 65.6683C171.519 65.6683 170.391 66.1216 169.485 67.0281C168.59 67.9233 168.142 69.0904 168.142 70.5295C168.142 71.9686 168.59 73.1357 169.485 74.0309C170.391 74.9374 171.519 75.3907 172.867 75.3907C174.284 75.3907 175.513 74.7958 176.556 73.606L177.695 74.7108C177.117 75.402 176.408 75.9403 175.57 76.3255C174.731 76.6995 173.831 76.8865 172.867 76.8865ZM182.657 76.8865C181.434 76.8865 180.425 76.4672 179.632 75.6287C178.839 74.7901 178.442 73.7306 178.442 72.4502C178.442 71.1811 178.827 70.1272 179.598 69.2887C180.369 68.4389 181.354 68.0139 182.555 68.0139C183.791 68.0139 184.771 68.4162 185.496 69.2207C186.233 70.0139 186.601 71.1301 186.601 72.5692L186.584 72.7391H180.04C180.063 73.555 180.335 74.2122 180.856 74.7108C181.377 75.2094 182 75.4587 182.725 75.4587C183.723 75.4587 184.504 74.9601 185.071 73.9629L186.465 74.6428C186.091 75.3454 185.57 75.895 184.901 76.2916C184.244 76.6882 183.496 76.8865 182.657 76.8865ZM180.159 71.4474H184.935C184.89 70.8695 184.652 70.3935 184.221 70.0196C183.802 69.6343 183.235 69.4417 182.521 69.4417C181.932 69.4417 181.422 69.623 180.992 69.9856C180.572 70.3482 180.295 70.8355 180.159 71.4474ZM191.853 75.4587C192.624 75.4587 193.253 75.1811 193.74 74.6258C194.25 74.0706 194.505 73.3454 194.505 72.4502C194.505 71.5777 194.25 70.8581 193.74 70.2915C193.241 69.725 192.612 69.4417 191.853 69.4417C191.105 69.4417 190.476 69.725 189.967 70.2915C189.457 70.8581 189.202 71.5777 189.202 72.4502C189.202 73.334 189.457 74.0536 189.967 74.6088C190.476 75.1754 191.105 75.4587 191.853 75.4587ZM191.598 76.8865C190.51 76.8865 189.576 76.4559 188.794 75.5947C188.023 74.7221 187.638 73.674 187.638 72.4502C187.638 71.2264 188.023 70.1782 188.794 69.3057C189.576 68.4445 190.51 68.0139 191.598 68.0139C192.21 68.0139 192.765 68.1442 193.264 68.4049C193.774 68.6655 194.165 69.0111 194.437 69.4417H194.505L194.437 68.2859V64.4445H196.001V76.6145H194.505V75.4587H194.437C194.165 75.8893 193.774 76.2349 193.264 76.4955C192.765 76.7561 192.21 76.8865 191.598 76.8865ZM199.93 65.4134C199.93 65.7193 199.822 65.9799 199.607 66.1952C199.392 66.4105 199.131 66.5182 198.825 66.5182C198.519 66.5182 198.258 66.4105 198.043 66.1952C197.828 65.9799 197.72 65.7193 197.72 65.4134C197.72 65.1074 197.828 64.8468 198.043 64.6315C198.258 64.4162 198.519 64.3085 198.825 64.3085C199.131 64.3085 199.392 64.4162 199.607 64.6315C199.822 64.8468 199.93 65.1074 199.93 65.4134ZM199.607 68.2859V76.6145H198.043V68.2859H199.607Z" fill="#010513"/>
</g>
<g filter="url(#filter2_dd_449_6043)">
<path d="M8 86.9172C8 81.8911 12.0744 77.8167 17.1005 77.8167H428.899C433.926 77.8167 438 81.8911 438 86.9172V141.52C438 146.546 433.926 150.621 428.899 150.621H17.1005C12.0744 150.621 8 146.546 8 141.52V86.9172Z" fill="white"/>
<g clip-path="url(#clip2_449_6043)">
<path fill-rule="evenodd" clip-rule="evenodd" d="M47.8174 100.568H75.119V127.869H47.8174V100.568Z" fill="white"/>
<path fill-rule="evenodd" clip-rule="evenodd" d="M66.0156 100.568H75.119V127.869H66.0156V100.568ZM47.8174 100.568H56.9165V127.869H47.8174V100.568Z" fill="#008753"/>
</g>
<path d="M88.102 119.719H86.5383V107.549H88.4419L94.357 117.016H94.4249L94.357 114.67V107.549H95.9207V119.719H94.289L88.102 109.792H88.034L88.102 112.138V119.719ZM100.124 108.517C100.124 108.823 100.016 109.084 99.801 109.299C99.5857 109.515 99.3251 109.622 99.0191 109.622C98.7132 109.622 98.4525 109.515 98.2372 109.299C98.0219 109.084 97.9143 108.823 97.9143 108.517C97.9143 108.212 98.0219 107.951 98.2372 107.736C98.4525 107.52 98.7132 107.413 99.0191 107.413C99.3251 107.413 99.5857 107.52 99.801 107.736C100.016 107.951 100.124 108.212 100.124 108.517ZM99.801 111.39V119.719H98.2372V111.39H99.801ZM105.492 118.563C106.263 118.563 106.892 118.285 107.379 117.73C107.889 117.175 108.144 116.45 108.144 115.554C108.144 114.682 107.889 113.962 107.379 113.396C106.88 112.829 106.252 112.546 105.492 112.546C104.745 112.546 104.116 112.829 103.606 113.396C103.096 113.962 102.841 114.682 102.841 115.554C102.841 116.438 103.096 117.158 103.606 117.713C104.116 118.28 104.745 118.563 105.492 118.563ZM105.441 123.662C104.977 123.662 104.541 123.6 104.133 123.475C103.725 123.362 103.351 123.197 103.011 122.982C102.682 122.767 102.399 122.512 102.161 122.217C101.923 121.923 101.742 121.594 101.617 121.231L103.096 120.619C103.266 121.107 103.56 121.498 103.98 121.792C104.399 122.087 104.886 122.234 105.441 122.234C106.291 122.234 106.954 121.979 107.43 121.469C107.906 120.959 108.144 120.257 108.144 119.362V118.563H108.076C107.781 119.005 107.379 119.356 106.869 119.617C106.371 119.866 105.827 119.991 105.237 119.991C104.15 119.991 103.215 119.566 102.433 118.716C101.662 117.843 101.277 116.789 101.277 115.554C101.277 114.319 101.662 113.271 102.433 112.41C103.215 111.549 104.15 111.118 105.237 111.118C105.827 111.118 106.371 111.248 106.869 111.509C107.379 111.758 107.781 112.104 108.076 112.546H108.144V111.39H109.64V119.362C109.64 120.699 109.26 121.747 108.501 122.506C107.73 123.277 106.711 123.662 105.441 123.662ZM115.203 119.991C113.979 119.991 112.97 119.571 112.177 118.733C111.384 117.894 110.987 116.835 110.987 115.554C110.987 114.285 111.373 113.231 112.143 112.393C112.914 111.543 113.9 111.118 115.101 111.118C116.336 111.118 117.316 111.52 118.041 112.325C118.778 113.118 119.146 114.234 119.146 115.673L119.129 115.843H112.585C112.608 116.659 112.88 117.316 113.401 117.815C113.922 118.314 114.545 118.563 115.271 118.563C116.268 118.563 117.05 118.064 117.616 117.067L119.01 117.747C118.636 118.45 118.115 118.999 117.446 119.396C116.789 119.792 116.041 119.991 115.203 119.991ZM112.704 114.551H117.48C117.435 113.974 117.197 113.498 116.766 113.124C116.347 112.738 115.781 112.546 115.067 112.546C114.477 112.546 113.968 112.727 113.537 113.09C113.118 113.452 112.84 113.94 112.704 114.551ZM122.14 119.719H120.576V111.39H122.072V112.75H122.14C122.298 112.308 122.621 111.934 123.109 111.628C123.607 111.311 124.094 111.152 124.57 111.152C125.024 111.152 125.409 111.22 125.726 111.356L125.25 112.869C125.058 112.789 124.752 112.75 124.332 112.75C123.743 112.75 123.228 112.988 122.786 113.464C122.355 113.94 122.14 114.495 122.14 115.129V119.719ZM128.773 108.517C128.773 108.823 128.666 109.084 128.451 109.299C128.235 109.515 127.975 109.622 127.669 109.622C127.363 109.622 127.102 109.515 126.887 109.299C126.671 109.084 126.564 108.823 126.564 108.517C126.564 108.212 126.671 107.951 126.887 107.736C127.102 107.52 127.363 107.413 127.669 107.413C127.975 107.413 128.235 107.52 128.451 107.736C128.666 107.951 128.773 108.212 128.773 108.517ZM128.451 111.39V119.719H126.887V111.39H128.451ZM131.541 117.169C131.541 117.577 131.711 117.917 132.051 118.189C132.403 118.461 132.81 118.597 133.275 118.597C133.932 118.597 134.516 118.353 135.026 117.866C135.547 117.379 135.808 116.806 135.808 116.149C135.32 115.764 134.641 115.571 133.768 115.571C133.133 115.571 132.601 115.724 132.17 116.03C131.751 116.336 131.541 116.716 131.541 117.169ZM133.564 111.118C134.72 111.118 135.632 111.43 136.301 112.053C136.969 112.665 137.303 113.509 137.303 114.585V119.719H135.808V118.563H135.74C135.094 119.515 134.233 119.991 133.156 119.991C132.238 119.991 131.468 119.719 130.844 119.175C130.233 118.631 129.927 117.951 129.927 117.135C129.927 116.274 130.25 115.588 130.895 115.078C131.553 114.568 132.425 114.314 133.513 114.314C134.442 114.314 135.207 114.483 135.808 114.823V114.466C135.808 113.923 135.592 113.464 135.162 113.09C134.731 112.704 134.227 112.512 133.649 112.512C132.777 112.512 132.085 112.88 131.575 113.617L130.199 112.75C130.958 111.662 132.08 111.118 133.564 111.118ZM144.638 119.719H143.074V107.549H144.978L150.893 117.016H150.961L150.893 114.67V107.549H152.456V119.719H150.825L144.638 109.792H144.57L144.638 112.138V119.719ZM155.527 117.169C155.527 117.577 155.697 117.917 156.037 118.189C156.388 118.461 156.796 118.597 157.26 118.597C157.918 118.597 158.501 118.353 159.011 117.866C159.532 117.379 159.793 116.806 159.793 116.149C159.306 115.764 158.626 115.571 157.753 115.571C157.119 115.571 156.586 115.724 156.156 116.03C155.736 116.336 155.527 116.716 155.527 117.169ZM157.549 111.118C158.705 111.118 159.617 111.43 160.286 112.053C160.954 112.665 161.289 113.509 161.289 114.585V119.719H159.793V118.563H159.725C159.079 119.515 158.218 119.991 157.141 119.991C156.224 119.991 155.453 119.719 154.83 119.175C154.218 118.631 153.912 117.951 153.912 117.135C153.912 116.274 154.235 115.588 154.881 115.078C155.538 114.568 156.411 114.314 157.498 114.314C158.428 114.314 159.192 114.483 159.793 114.823V114.466C159.793 113.923 159.578 113.464 159.147 113.09C158.716 112.704 158.212 112.512 157.634 112.512C156.762 112.512 156.071 112.88 155.561 113.617L154.184 112.75C154.943 111.662 156.065 111.118 157.549 111.118ZM165.075 108.517C165.075 108.823 164.967 109.084 164.752 109.299C164.537 109.515 164.276 109.622 163.97 109.622C163.664 109.622 163.404 109.515 163.188 109.299C162.973 109.084 162.865 108.823 162.865 108.517C162.865 108.212 162.973 107.951 163.188 107.736C163.404 107.52 163.664 107.413 163.97 107.413C164.276 107.413 164.537 107.52 164.752 107.736C164.967 107.951 165.075 108.212 165.075 108.517ZM164.752 111.39V119.719H163.188V111.39H164.752ZM168.351 119.719H166.787V111.39H168.283V112.75H168.351C168.51 112.308 168.833 111.934 169.32 111.628C169.818 111.311 170.306 111.152 170.782 111.152C171.235 111.152 171.62 111.22 171.937 111.356L171.461 112.869C171.269 112.789 170.963 112.75 170.544 112.75C169.954 112.75 169.439 112.988 168.997 113.464C168.566 113.94 168.351 114.495 168.351 115.129V119.719ZM173.769 117.169C173.769 117.577 173.939 117.917 174.279 118.189C174.63 118.461 175.038 118.597 175.502 118.597C176.16 118.597 176.743 118.353 177.253 117.866C177.774 117.379 178.035 116.806 178.035 116.149C177.548 115.764 176.868 115.571 175.995 115.571C175.361 115.571 174.828 115.724 174.398 116.03C173.978 116.336 173.769 116.716 173.769 117.169ZM175.791 111.118C176.947 111.118 177.859 111.43 178.528 112.053C179.197 112.665 179.531 113.509 179.531 114.585V119.719H178.035V118.563H177.967C177.321 119.515 176.46 119.991 175.384 119.991C174.466 119.991 173.695 119.719 173.072 119.175C172.46 118.631 172.154 117.951 172.154 117.135C172.154 116.274 172.477 115.588 173.123 115.078C173.78 114.568 174.653 114.314 175.74 114.314C176.67 114.314 177.434 114.483 178.035 114.823V114.466C178.035 113.923 177.82 113.464 177.389 113.09C176.959 112.704 176.454 112.512 175.876 112.512C175.004 112.512 174.313 112.88 173.803 113.617L172.426 112.75C173.185 111.662 174.307 111.118 175.791 111.118Z" fill="#010513"/>
</g>
<defs>
<filter id="filter0_dd_449_6043" x="22.8442" y="0" width="401.656" height="89.2963" filterUnits="userSpaceOnUse" color-interpolation-filters="sRGB">
<feFlood flood-opacity="0" result="BackgroundImageFix"/>
<feColorMatrix in="SourceAlpha" type="matrix" values="0 0 0 0 0 0 0 0 0 0 0 0 0 0 0 0 0 0 127 0" result="hardAlpha"/>
<feMorphology radius="4" operator="erode" in="SourceAlpha" result="effect1_dropShadow_449_6043"/>
<feOffset dy="4"/>
<feGaussianBlur stdDeviation="2"/>
<feComposite in2="hardAlpha" operator="out"/>
<feColorMatrix type="matrix" values="0 0 0 0 0.0470588 0 0 0 0 0.0470588 0 0 0 0 0.0509804 0 0 0 0.05 0"/>
<feBlend mode="normal" in2="BackgroundImageFix" result="effect1_dropShadow_449_6043"/>
<feColorMatrix in="SourceAlpha" type="matrix" values="0 0 0 0 0 0 0 0 0 0 0 0 0 0 0 0 0 0 127 0" result="hardAlpha"/>
<feMorphology radius="8" operator="erode" in="SourceAlpha" result="effect2_dropShadow_449_6043"/>
<feOffset dy="16"/>
<feGaussianBlur stdDeviation="8"/>
<feComposite in2="hardAlpha" operator="out"/>
<feColorMatrix type="matrix" values="0 0 0 0 0.0470588 0 0 0 0 0.0470588 0 0 0 0 0.0509804 0 0 0 0.1 0"/>
<feBlend mode="normal" in2="effect1_dropShadow_449_6043" result="effect2_dropShadow_449_6043"/>
<feBlend mode="normal" in="SourceGraphic" in2="effect2_dropShadow_449_6043" result="shape"/>
</filter>
<filter id="filter1_dd_449_6043" x="9.40674" y="35.8049" width="427.188" height="93.619" filterUnits="userSpaceOnUse" color-interpolation-filters="sRGB">
<feFlood flood-opacity="0" result="BackgroundImageFix"/>
<feColorMatrix in="SourceAlpha" type="matrix" values="0 0 0 0 0 0 0 0 0 0 0 0 0 0 0 0 0 0 127 0" result="hardAlpha"/>
<feMorphology radius="4" operator="erode" in="SourceAlpha" result="effect1_dropShadow_449_6043"/>
<feOffset dy="4"/>
<feGaussianBlur stdDeviation="2"/>
<feComposite in2="hardAlpha" operator="out"/>
<feColorMatrix type="matrix" values="0 0 0 0 0.0470588 0 0 0 0 0.0470588 0 0 0 0 0.0509804 0 0 0 0.05 0"/>
<feBlend mode="normal" in2="BackgroundImageFix" result="effect1_dropShadow_449_6043"/>
<feColorMatrix in="SourceAlpha" type="matrix" values="0 0 0 0 0 0 0 0 0 0 0 0 0 0 0 0 0 0 127 0" result="hardAlpha"/>
<feMorphology radius="8" operator="erode" in="SourceAlpha" result="effect2_dropShadow_449_6043"/>
<feOffset dy="16"/>
<feGaussianBlur stdDeviation="8"/>
<feComposite in2="hardAlpha" operator="out"/>
<feColorMatrix type="matrix" values="0 0 0 0 0.0470588 0 0 0 0 0.0470588 0 0 0 0 0.0509804 0 0 0 0.1 0"/>
<feBlend mode="normal" in2="effect1_dropShadow_449_6043" result="effect2_dropShadow_449_6043"/>
<feBlend mode="normal" in="SourceGraphic" in2="effect2_dropShadow_449_6043" result="shape"/>
</filter>
<filter id="filter2_dd_449_6043" x="0" y="77.8167" width="446" height="96.8042" filterUnits="userSpaceOnUse" color-interpolation-filters="sRGB">
<feFlood flood-opacity="0" result="BackgroundImageFix"/>
<feColorMatrix in="SourceAlpha" type="matrix" values="0 0 0 0 0 0 0 0 0 0 0 0 0 0 0 0 0 0 127 0" result="hardAlpha"/>
<feMorphology radius="4" operator="erode" in="SourceAlpha" result="effect1_dropShadow_449_6043"/>
<feOffset dy="4"/>
<feGaussianBlur stdDeviation="2"/>
<feComposite in2="hardAlpha" operator="out"/>
<feColorMatrix type="matrix" values="0 0 0 0 0.0470588 0 0 0 0 0.0470588 0 0 0 0 0.0509804 0 0 0 0.05 0"/>
<feBlend mode="normal" in2="BackgroundImageFix" result="effect1_dropShadow_449_6043"/>
<feColorMatrix in="SourceAlpha" type="matrix" values="0 0 0 0 0 0 0 0 0 0 0 0 0 0 0 0 0 0 127 0" result="hardAlpha"/>
<feMorphology radius="8" operator="erode" in="SourceAlpha" result="effect2_dropShadow_449_6043"/>
<feOffset dy="16"/>
<feGaussianBlur stdDeviation="8"/>
<feComposite in2="hardAlpha" operator="out"/>
<feColorMatrix type="matrix" values="0 0 0 0 0.0470588 0 0 0 0 0.0470588 0 0 0 0 0.0509804 0 0 0 0.1 0"/>
<feBlend mode="normal" in2="effect1_dropShadow_449_6043" result="effect2_dropShadow_449_6043"/>
<feBlend mode="normal" in="SourceGraphic" in2="effect2_dropShadow_449_6043" result="shape"/>
</filter>
<clipPath id="clip0_449_6043">
<rect x="66.5522" y="20.4052" width="24.4861" height="24.4861" rx="12.2431" fill="white"/>
</clipPath>
<clipPath id="clip1_449_6043">
<rect x="55.4795" y="57.5609" width="26.1071" height="26.1071" rx="13.0536" fill="white"/>
</clipPath>
<clipPath id="clip2_449_6043">
<rect x="47.8145" y="100.568" width="27.3016" height="27.3016" rx="13.6508" fill="white"/>
</clipPath>
</defs>
</svg>
