<svg width="52" height="28" viewBox="0 0 52 28" fill="none" xmlns="http://www.w3.org/2000/svg">
<rect width="52" height="28" rx="14" fill="#040404" fill-opacity="0.21"/>
<g clip-path="url(#clip0_449_5978)">
<path d="M16.3171 22.6342C20.9105 22.6342 24.6342 18.9105 24.6342 14.3171C24.6342 9.72369 20.9105 6 16.3171 6C11.7237 6 8 9.72369 8 14.3171C8 18.9105 11.7237 22.6342 16.3171 22.6342Z" fill="#F0F0F0"/>
<path d="M15.9553 14.317H24.634C24.634 13.5663 24.5339 12.8391 24.3475 12.1473H15.9553V14.317Z" fill="#D80027"/>
<path d="M15.9553 9.97731H23.4133C22.9042 9.14651 22.2532 8.41217 21.4942 7.80762H15.9553V9.97731Z" fill="#D80027"/>
<path d="M16.3169 22.6342C18.2743 22.6342 20.0734 21.9577 21.4942 20.8262H11.1396C12.5604 21.9577 14.3595 22.6342 16.3169 22.6342Z" fill="#D80027"/>
<path d="M9.22059 18.6558H23.4133C23.8221 17.9888 24.139 17.2598 24.3475 16.4861H8.28638C8.49486 17.2598 8.81185 17.9888 9.22059 18.6558Z" fill="#D80027"/>
<path d="M11.8526 7.29883H12.6106L11.9056 7.81101L12.1749 8.63977L11.4699 8.12758L10.7649 8.63977L10.9975 7.92381C10.3768 8.44087 9.83275 9.04665 9.38441 9.72164H9.62726L9.17849 10.0477C9.10858 10.1643 9.04152 10.2828 8.97726 10.403L9.19155 11.0626L8.79175 10.7721C8.69237 10.9827 8.60146 11.198 8.51975 11.4177L8.75585 12.1444H9.62726L8.92225 12.6566L9.19155 13.4854L8.48658 12.9732L8.0643 13.28C8.02203 13.6198 8 13.9659 8 14.3171H16.3171C16.3171 9.72372 16.3171 9.1822 16.3171 6C14.6741 6 13.1425 6.47661 11.8526 7.29883ZM12.1749 13.4854L11.4699 12.9732L10.7649 13.4854L11.0342 12.6566L10.3292 12.1444H11.2006L11.4699 11.3157L11.7392 12.1444H12.6106L11.9056 12.6566L12.1749 13.4854ZM11.9056 10.2338L12.1749 11.0626L11.4699 10.5504L10.7649 11.0626L11.0342 10.2338L10.3292 9.72164H11.2006L11.4699 8.89289L11.7392 9.72164H12.6106L11.9056 10.2338ZM15.1582 13.4854L14.4532 12.9732L13.7482 13.4854L14.0175 12.6566L13.3125 12.1444H14.1839L14.4532 11.3157L14.7225 12.1444H15.5939L14.8889 12.6566L15.1582 13.4854ZM14.8889 10.2338L15.1582 11.0626L14.4532 10.5504L13.7482 11.0626L14.0175 10.2338L13.3125 9.72164H14.1839L14.4532 8.89289L14.7225 9.72164H15.5939L14.8889 10.2338ZM14.8889 7.81101L15.1582 8.63977L14.4532 8.12758L13.7482 8.63977L14.0175 7.81101L13.3125 7.29883H14.1839L14.4532 6.47008L14.7225 7.29883H15.5939L14.8889 7.81101Z" fill="#0052B4"/>
</g>
<path d="M30.2205 19.4571C29.4738 19.4571 28.9045 19.2471 28.5125 18.8271C28.1205 18.3978 27.9245 17.7865 27.9245 16.9931V9.51714H29.4645V17.1051C29.4645 17.4411 29.5298 17.6838 29.6605 17.8331C29.8005 17.9825 29.9965 18.0571 30.2485 18.0571C30.5005 18.0571 30.6918 17.9825 30.8225 17.8331C30.9625 17.6838 31.0325 17.4411 31.0325 17.1051V9.51714H32.5165V16.9931C32.5165 17.7865 32.3205 18.3978 31.9285 18.8271C31.5365 19.2471 30.9672 19.4571 30.2205 19.4571ZM35.6153 19.4571C34.8686 19.4571 34.304 19.2471 33.9213 18.8271C33.5386 18.3978 33.3473 17.7865 33.3473 16.9931V16.4331H34.8033V17.1051C34.8033 17.7398 35.0693 18.0571 35.6013 18.0571C35.8626 18.0571 36.0586 17.9825 36.1893 17.8331C36.3293 17.6745 36.3993 17.4225 36.3993 17.0771C36.3993 16.6665 36.306 16.3071 36.1193 15.9991C35.9326 15.6818 35.5873 15.3038 35.0833 14.8651C34.4486 14.3051 34.0053 13.8011 33.7533 13.3531C33.5013 12.8958 33.3753 12.3825 33.3753 11.8131C33.3753 11.0385 33.5713 10.4411 33.9633 10.0211C34.3553 9.5918 34.9246 9.37714 35.6713 9.37714C36.4086 9.37714 36.964 9.5918 37.3373 10.0211C37.72 10.4411 37.9113 11.0478 37.9113 11.8411V12.2471H36.4553V11.7431C36.4553 11.4071 36.39 11.1645 36.2593 11.0151C36.1286 10.8565 35.9373 10.7771 35.6853 10.7771C35.172 10.7771 34.9153 11.0898 34.9153 11.7151C34.9153 12.0698 35.0086 12.4011 35.1953 12.7091C35.3913 13.0171 35.7413 13.3905 36.2453 13.8291C36.8893 14.3891 37.3326 14.8978 37.5753 15.3551C37.818 15.8125 37.9393 16.3491 37.9393 16.9651C37.9393 17.7678 37.7386 18.3838 37.3373 18.8131C36.9453 19.2425 36.3713 19.4571 35.6153 19.4571ZM38.8223 9.51714H41.1743C41.9396 9.51714 42.5136 9.72247 42.8963 10.1331C43.279 10.5438 43.4703 11.1458 43.4703 11.9391V16.8951C43.4703 17.6885 43.279 18.2905 42.8963 18.7011C42.5136 19.1118 41.9396 19.3171 41.1743 19.3171H38.8223V9.51714ZM41.1463 17.9171C41.3983 17.9171 41.5896 17.8425 41.7203 17.6931C41.8603 17.5438 41.9303 17.3011 41.9303 16.9651V11.8691C41.9303 11.5331 41.8603 11.2905 41.7203 11.1411C41.5896 10.9918 41.3983 10.9171 41.1463 10.9171H40.3623V17.9171H41.1463Z" fill="#F5F5F5"/>
<defs>
<clipPath id="clip0_449_5978">
<rect width="16.6342" height="16.6342" fill="white" transform="translate(8 6)"/>
</clipPath>
</defs>
</svg>
